<?xml version="1.0" encoding="utf-8"?>
<!-- Generator: Adobe Illustrator 16.0.0, SVG Export Plug-In . SVG Version: 6.00 Build 0)  -->
<!DOCTYPE svg PUBLIC "-//W3C//DTD SVG 1.1//EN" "http://www.w3.org/Graphics/SVG/1.1/DTD/svg11.dtd">
<svg version="1.1" xmlns="http://www.w3.org/2000/svg" xmlns:xlink="http://www.w3.org/1999/xlink" x="0px" y="0px" width="288px"
	 height="288px" viewBox="0 0 288 288" enable-background="new 0 0 288 288" xml:space="preserve">
<g id="Truck__2c">
</g>
<g id="Truck__2c_copy_4">
</g>
<g id="Truck__2c_copy">
</g>
<g id="Truck__2c_copy_3">
</g>
<g id="Truck__2c_copy_2">
</g>
<g id="Truck__2c_copy_5">
</g>
<g id="Truck__2c_copy_7">
</g>
<g id="Truck__2c_copy_6">
	
		<rect x="33.166" y="80" fill="#FFFFFF" stroke="#43413E" stroke-width="4" stroke-miterlimit="10" width="173.3" height="109.495"/>
	<polygon fill="#FFFFFF" stroke="#43413E" stroke-width="4" stroke-miterlimit="10" points="266,147.823 238.658,113.885 
		238.658,113.589 206.466,113.589 206.466,189.495 227.791,189.495 238.658,189.495 266,189.495 266,147.838 265.906,147.838 	"/>
	<path fill="#FFFFFF" stroke="#43413E" stroke-width="4" stroke-miterlimit="10" d="M94.482,198.551
		c0-13.094-10.617-23.71-23.711-23.71l0,0c-13.094,0-23.711,10.616-23.711,23.71l0,0c0,13.094,10.617,23.71,23.711,23.71l0,0
		C83.865,222.261,94.482,211.645,94.482,198.551L94.482,198.551z"/>
	<path fill="#FFFFFF" stroke="#43413E" stroke-width="4" stroke-miterlimit="10" d="M227.791,198.551
		c0-13.094-10.615-23.71-23.71-23.71l0,0c-13.094,0-23.71,10.616-23.71,23.71l0,0c0,13.094,10.616,23.71,23.71,23.71l0,0
		C217.176,222.261,227.791,211.645,227.791,198.551L227.791,198.551z"/>
	<polygon fill="#981B32" points="127.188,107.273 134.875,122.85 152.064,125.348 139.625,137.473 142.563,154.594 127.188,146.511 
		111.812,154.594 114.748,137.473 102.309,125.348 119.499,122.85 	"/>
</g>
<g id="Layer_2" display="none">
</g>
</svg>
